<?xml version="1.0" encoding="utf-8"?>
<!-- Generator: Adobe Illustrator 21.0.0, SVG Export Plug-In . SVG Version: 6.00 Build 0)  -->
<svg version="1.1" id="Layer_1" xmlns="http://www.w3.org/2000/svg" xmlns:xlink="http://www.w3.org/1999/xlink" x="0px" y="0px"
	 viewBox="0 0 100 62" style="enable-background:new 0 0 100 62;" xml:space="preserve">
<style type="text/css">
	.st0{fill:#360000;}
</style>
<g>
	<g>
		<g>
			<path class="st0" d="M34.1,55.5V37.9h1.2v17.5H34.1z"/>
			<path class="st0" d="M55.4,55.5v-16l-7.1,4.3l0,0l-7.2-4.3v16h-1.2V37.9h1.2l7.2,4.3l7.2-4.3h1.2v17.6H55.4z"/>
			<path class="st0" d="M28.3,55.5v-16l-7.1,4.3l0,0L14,39.5v16h-1.2V37.9H14l7.2,4.3l7.2-4.3h1.2v17.6H28.3z"/>
			<path class="st0" d="M59.3,55.5l7.3-17.6h1l7.3,17.6h-1.3l-2.4-5.8H63l-2.4,5.8H59.3z M67.1,39.4l-3.8,9.2h7.6L67.1,39.4z"/>
			<path class="st0" d="M77.6,55.5V37.9h7.2c0.7,0,1.4,0.2,2,0.5c0.6,0.3,1.1,0.7,1.6,1.2c0.4,0.5,0.8,1.1,1,1.8
				c0.3,0.7,0.4,1.3,0.4,2c0,0.6-0.1,1.3-0.3,1.9c-0.2,0.6-0.5,1.1-0.8,1.6c-0.4,0.5-0.8,0.9-1.3,1.2c-0.5,0.3-1,0.5-1.6,0.6
				l4.3,6.8h-1.4l-4.2-6.6h-5.6v6.6H77.6z M78.9,47.7h6c0.5,0,1-0.1,1.5-0.4c0.5-0.2,0.8-0.6,1.2-1c0.3-0.4,0.6-0.9,0.7-1.4
				c0.2-0.5,0.3-1.1,0.3-1.6c0-0.6-0.1-1.1-0.3-1.6c-0.2-0.5-0.5-1-0.8-1.4c-0.3-0.4-0.7-0.7-1.2-1c-0.5-0.2-1-0.4-1.5-0.4h-5.8
				V47.7z"/>
		</g>
	</g>
	<g>
		<path class="st0" d="M51.4,5.9l-29,14.5l29,14.5l29-14.5L51.4,5.9z M72.1,23.2l-5.7-2.9l5.7-2.9V23.2z M72.8,17.5l5.7,2.9
			l-5.7,2.9V17.5z M71.6,16.8l-6.1,3.1l-7-3.5l-7,3.5l-7-3.5l-7,3.5l-6.1-3.1L51.4,6.8L71.6,16.8z M64.5,20.4l-13.2,6.6l-13.2-6.6
			l6.1-3.1l7,3.5l7-3.5L64.5,20.4z M30.7,17.5l5.7,2.9l-5.7,2.9V17.5z M29.9,17.5v5.7l-5.7-2.9L29.9,17.5z M31.2,23.9l6.1-3.1l14,7
			l14-7l6.1,3.1L51.4,34L31.2,23.9z"/>
		<path class="st0" d="M59.3,13.3l-7.9-4l-7.9,4l7.9,4L59.3,13.3z M51.4,10.3l6.1,3.1l-6.1,3.1l-6.1-3.1L51.4,10.3z"/>
	</g>
</g>
</svg>
